<?xml version="1.0" encoding="UTF-8"?><svg id="a" xmlns="http://www.w3.org/2000/svg" viewBox="0 0 72.82 80.2"><defs><style>.b{fill:#fff;}.c,.d{fill:#2e3191;}.d{font-family:BookmanOldStyle-Bold, Bookman Old Style;font-size:8px;}.e,.f,.g{fill:none;}.f{stroke:#fff;stroke-linecap:round;stroke-linejoin:round;stroke-width:.75px;}.g{stroke:#2e3191;stroke-miterlimit:10;stroke-width:3px;}</style></defs><circle class="b" cx="35.1" cy="37.77" r="33.34"/><circle class="e" cx="35.1" cy="37.87" r="20.2"/><text class="d" transform="translate(18.47 60.56) rotate(30.15)"><tspan x="0" y="0">U</tspan></text><text class="d" transform="translate(24.48 63.91) rotate(16.13)"><tspan x="0" y="0">N</tspan></text><text class="d" transform="translate(30.97 65.57) rotate(5.28)"><tspan x="0" y="0">I</tspan></text><text class="d" transform="translate(34.95 65.98) rotate(-5.28)"><tspan x="0" y="0">T</tspan></text><text class="d" transform="translate(41.47 65.27) rotate(-18.85)"><tspan x="0" y="0">E</tspan></text><text class="d" transform="translate(47.84 62.99) rotate(-33.14)"><tspan x="0" y="0">D</tspan></text><text class="d" transform="translate(13.23 44.47) rotate(-99.18)"><tspan x="0" y="0">K</tspan></text><text class="d" transform="translate(12.25 37.94) rotate(-83.2)"><tspan x="0" y="0">E</tspan></text><text class="d" transform="translate(12.95 32.03) rotate(-67.73)"><tspan x="0" y="0">R</tspan></text><text class="d" transform="translate(15.45 26.07) rotate(-51.82)"><tspan x="0" y="0">N</tspan></text><text class="d" transform="translate(19.51 21.24) rotate(-39.81)"><tspan x="0" y="0"> </tspan></text><text class="d" transform="translate(21.38 19.49) rotate(-29.58)"><tspan x="0" y="0">V</tspan></text><text class="d" transform="translate(26.15 16.7) rotate(-14.96)"><tspan x="0" y="0">O</tspan></text><text class="d" transform="translate(32.16 15.15) rotate(-.88)"><tspan x="0" y="0">L</tspan></text><text class="d" transform="translate(37.07 15) rotate(12.59)"><tspan x="0" y="0">U</tspan></text><text class="d" transform="translate(42.64 16.22) rotate(26.8)"><tspan x="0" y="0">N</tspan></text><text class="d" transform="translate(47.73 18.78) rotate(40.84)"><tspan x="0" y="0">T</tspan></text><text class="d" transform="translate(52.24 22.73) rotate(56.18)"><tspan x="0" y="0">E</tspan></text><text class="d" transform="translate(55.61 27.87) rotate(71.57)"><tspan x="0" y="0">E</tspan></text><text class="d" transform="translate(57.53 33.69) rotate(87.62)"><tspan x="0" y="0">R</tspan></text><text class="d" transform="translate(57.71 40.09) rotate(102.68)"><tspan x="0" y="0">S</tspan></text><g><polygon class="c" points="26.76 26.4 24.23 26.59 21.4 27.53 19.36 28.7 17.63 30.51 16.42 32.59 16.12 35.53 16.42 38.29 18.12 40.96 23.59 46.13 37.17 52.74 39.74 53.72 41.81 53.15 42.27 51.23 43.89 51.34 45.1 50.17 45.21 48.62 46.8 48.7 48.04 48.1 49.02 46.17 49.29 45.95 51.32 45.19 51.74 43.19 51.51 33.49 26.76 26.4"/><polyline class="c" points="24.12 44.32 25.45 44.76 25.98 46.07 26.31 46.5 27.49 46.27 29.02 46.85 29.63 48.46 31.31 48.16 32.39 48.86 33.07 50.22 34.58 50.07 36.14 51.18 36.39 52.41 34.68 55.2 33.25 55.58 32.04 55.03 31.26 53.29 30.28 53.54 28.55 53.22 27.92 51.2 26.89 51.66 25.58 51.43 24.57 50.32 24.5 49.24 23.34 49.79 22.06 49.47 21.1 48.26 21.15 47.08 22.81 44.56"/><polygon class="c" points="53.68 34.05 52.44 30.4 50.28 27.61 48.11 26.47 40.9 25.39 30.83 24.46 28.87 24.61 27.59 25.34 25.7 30.5 25.2 32.08 25.95 33.67 27.04 34.17 28.34 33.8 29.27 33.09 29.85 31.86 31.19 29.75 32.37 29.32 37.65 32.13 43.31 35.48 47.99 38.12 50.43 40.64 51.71 42.65 52.29 42.1 52.95 41.42 53.63 39.38 54.1 37.09 53.68 34.05"/><g><path class="f" d="M22.24,44.77s-4.94-4.28-5.56-5.9c-2.06-5.35,1.2-12.55,10.48-12.55"/><line class="f" x1="36.43" y1="43.81" x2="44.96" y2="48.41"/><polyline class="f" points="32.73 46.34 39.49 50.1 42.04 51.05"/><polyline class="f" points="48.88 45.83 45.85 43.14 39.18 39.72"/><path class="f" d="M36.32,52.23c5.22,3.31,6.56-.17,5.72-1.18,1.68,.95,3.81-.34,2.92-2.58,2.3,1.12,4.26-.62,3.98-2.58,2.02,.39,3.31-1.29,2.69-3.25,4.65-3.2,1.93-14.6-3.52-16.17-4.27-1.23-17.96-1.94-17.96-1.94-1.28-.03-2.47,.34-2.86,1.51l-1.85,5.33c-.45,1.07,.06,2.3,1.12,2.75,1.18,.28,2.23-.34,2.8-1.4l.63-1.29c.5-1.12,1.56-2.41,3.02-1.85l14.64,8.47c1.51,1.01,3.64,3.53,3.93,4.43"/><g><path class="f" d="M32.67,50.94l-.84,1.46c-.67,.9-.5,2.13,.39,2.75s2.13,.5,2.75-.39c.11-.11,.17-.28,.28-.45,.17-.39,.84-1.46,.84-1.46"/><path class="f" d="M36.1,52.84c.62-1.01,0-1.96-.84-2.47-.9-.5-1.91-.34-2.52,.5"/><path class="f" d="M29.25,48.97l-.84,1.46c-.67,.9-.5,2.13,.39,2.75,.9,.67,2.13,.5,2.75-.39,.11-.11,.17-.28,.28-.45,.17-.39,.84-1.46,.84-1.46"/><path class="f" d="M32.67,50.88c.62-1.01,0-1.96-.84-2.47-.9-.5-1.91-.34-2.52,.5"/><path class="f" d="M25.83,47.01l-.84,1.46c-.67,.9-.5,2.13,.39,2.75s2.13,.5,2.75-.39c.11-.11,.17-.28,.28-.45,.17-.39,.84-1.46,.84-1.46"/><path class="f" d="M29.25,48.97c.62-1.01,0-1.96-.84-2.47-.9-.5-1.91-.34-2.52,.5"/><path class="f" d="M22.41,45.1l-.84,1.46c-.67,.9-.5,2.13,.39,2.75s2.13,.5,2.75-.39c.11-.11,.17-.28,.28-.45,.17-.39,.84-1.46,.84-1.46"/><path class="f" d="M25.83,47.01c.62-1.01,0-1.96-.84-2.47-.9-.5-1.91-.34-2.52,.5"/></g></g></g><circle class="g" cx="35.1" cy="37.77" r="33.6"/></svg>