<?xml version="1.0" encoding="UTF-8"?><svg id="a" xmlns="http://www.w3.org/2000/svg" viewBox="0 0 70.19 70.19"><defs><style>.b{fill:#fff;}.c,.d,.e{fill:#003566;}.d,.e{stroke:#fff;stroke-width:.65px;}.d,.e,.f{stroke-miterlimit:10;}.e{stroke-linecap:round;}.g,.f{fill:none;}.f{stroke:#003566;stroke-width:3px;}</style></defs><circle class="b" cx="34.1" cy="34.59" r="33.34"/><circle class="g" cx="35.1" cy="35.2" r="20.2"/><g><path class="c" d="M21.33,53.24l2.3,1.34-.38,.65-.23-.13c-.1-.06-.18-.09-.24-.09-.06,0-.11,.02-.16,.05-.05,.03-.11,.12-.2,.26l-1,1.72c-.19,.32-.29,.58-.32,.77-.03,.19,0,.37,.08,.53,.08,.16,.22,.29,.4,.4s.38,.16,.57,.15c.2,0,.37-.06,.51-.16,.14-.1,.31-.31,.49-.63l1.1-1.89c.05-.08,.07-.14,.07-.19,0-.06-.02-.11-.05-.16-.02-.03-.1-.08-.23-.16l-.18-.11,.38-.65,1.95,1.13-.38,.65-.15-.09c-.15-.09-.25-.13-.3-.14-.07,0-.13,.01-.19,.05-.04,.02-.1,.11-.19,.26l-1.08,1.86c-.2,.34-.42,.6-.65,.77-.32,.24-.68,.35-1.08,.35s-.81-.12-1.22-.36c-.29-.17-.53-.36-.7-.59s-.3-.47-.38-.73-.09-.51-.06-.73c.04-.22,.16-.52,.37-.88l1.06-1.82c.1-.17,.15-.28,.16-.34,0-.06,0-.11-.03-.16-.03-.05-.1-.1-.22-.17l-.22-.12,.38-.65Z"/><path class="c" d="M26.29,56.09l2.12,.61,.65,3.5,.54-1.87c.05-.16,.07-.26,.06-.31,0-.07-.03-.12-.07-.15-.04-.04-.12-.07-.24-.11l-.26-.07,.21-.72,2.16,.62-.21,.72-.24-.07c-.12-.03-.21-.04-.27-.03-.06,.01-.11,.04-.14,.08-.03,.04-.07,.14-.12,.3l-1.17,4.05-1.08-.31-.83-4.42-.78,2.7c-.04,.15-.06,.26-.06,.3,0,.05,.03,.09,.07,.13,.04,.04,.12,.08,.24,.11l.25,.07-.21,.72-2.17-.63,.21-.72,.22,.07c.12,.04,.21,.05,.26,.04,.05,0,.1-.03,.14-.08,.04-.04,.08-.12,.11-.23l.87-3c.03-.12,.04-.2,.04-.27,0-.06-.03-.11-.07-.14-.04-.04-.1-.07-.2-.1l-.28-.08,.21-.72Z"/><path class="c" d="M31.74,57.5l2.65,.24-.07,.75-.24-.02c-.14-.01-.23,0-.28,.01-.05,.02-.08,.06-.11,.11s-.05,.15-.06,.3l-.28,3c-.02,.16-.02,.27,0,.32,.01,.05,.04,.09,.08,.11,.05,.04,.13,.06,.24,.07l.29,.03-.07,.75-2.65-.25,.07-.75,.21,.02c.15,.01,.26,.01,.31,0,.05-.02,.09-.05,.11-.09,.03-.05,.05-.14,.06-.28l.28-3.01c.02-.17,.02-.28,0-.34s-.05-.1-.1-.13c-.04-.02-.12-.04-.26-.06l-.24-.02,.07-.75Z"/><path class="c" d="M35.12,57.64l.51-.05,.07,.18,3.06-.28,.05-.19,.52-.05,.85,1.84-.7,.32c-.19-.3-.33-.5-.4-.59-.15-.18-.33-.31-.52-.4-.14-.07-.28-.1-.41-.09-.06,0-.1,.03-.12,.06-.02,.03-.03,.1-.02,.21l.29,3.12c.02,.18,.03,.3,.05,.34,.02,.04,.04,.08,.08,.1,.03,.02,.08,.04,.13,.04,.05,0,.2,0,.44-.03l.07,.75-2.65,.24-.07-.75,.16-.02c.18-.02,.29-.04,.34-.06,.05-.03,.08-.07,.1-.13,.02-.06,.02-.18,0-.35l-.29-3.19c0-.09-.02-.15-.05-.17-.02-.02-.07-.03-.14-.02-.13,.01-.28,.08-.44,.19-.16,.12-.29,.27-.4,.47-.04,.08-.14,.29-.27,.64l-.74-.19,.49-1.96Z"/><path class="c" d="M40,57.35l4.31-1.47,1.14,1.43-.59,.47c-.2-.23-.41-.4-.62-.51s-.41-.16-.61-.15c-.2,0-.42,.06-.67,.14l-.79,.27,.44,1.29,.26-.09c.2-.07,.32-.12,.38-.18,.06-.05,.09-.11,.1-.18,0-.07-.02-.2-.08-.38l-.07-.19,.66-.23,.75,2.19-.66,.22-.08-.22c-.05-.15-.11-.25-.17-.31-.06-.06-.12-.09-.19-.09-.07,0-.21,.03-.42,.1l-.23,.08,.4,1.19c.04,.13,.07,.2,.1,.22,.02,.02,.05,.04,.09,.04,.04,0,.12-.02,.24-.06l.43-.15c.32-.11,.58-.25,.77-.42,.19-.17,.34-.39,.44-.65,.1-.27,.15-.56,.15-.88h.76l-.02,2.15-4.46,1.52-.24-.71,.13-.04c.17-.06,.28-.11,.33-.16s.08-.1,.08-.17c0-.04-.03-.15-.09-.32l-.96-2.81c-.05-.15-.1-.25-.13-.29-.04-.04-.08-.06-.13-.07-.05,0-.14,0-.27,.05l-.23,.08-.24-.71Z"/><path class="c" d="M45.11,55.6l2.39-1.56c.54-.35,1.03-.55,1.46-.59,.43-.04,.86,.05,1.27,.26,.41,.21,.77,.56,1.08,1.03,.22,.33,.36,.66,.43,.98,.07,.32,.08,.65,.02,.99-.06,.33-.16,.62-.31,.87-.11,.19-.31,.4-.58,.65s-.5,.43-.68,.55l-2.11,1.38-.41-.63,.16-.1c.13-.09,.21-.16,.24-.2s.04-.11,.03-.18c0-.05-.06-.15-.15-.29l-1.63-2.49c-.09-.14-.16-.22-.21-.25-.04-.03-.1-.04-.15-.03s-.15,.06-.29,.15l-.16,.1-.41-.63Zm2.15-.36l1.86,2.84c.06,.1,.11,.15,.13,.17,.04,.02,.08,.03,.12,.02s.13-.06,.26-.14c.36-.23,.6-.47,.73-.71,.13-.24,.18-.52,.14-.85-.03-.32-.16-.65-.38-.99-.22-.33-.46-.58-.74-.75-.28-.17-.53-.25-.77-.24-.24,.01-.52,.12-.84,.33l-.5,.33Z"/></g><g><path class="c" d="M7.81,42.38l-.42-2.63,.74-.12,.03,.17c.03,.17,.05,.27,.08,.3,.04,.06,.09,.1,.14,.11,.06,.02,.15,.02,.3,0l1.43-.23-1.83-1.43c-.08-.06-.14-.1-.16-.11-.03-.01-.05-.02-.07-.01-.04,0-.06,.03-.07,.06-.01,.03-.01,.11,0,.23l.03,.22-.74,.12-.39-2.43,.74-.12v.08c.03,.11,.05,.19,.07,.23,.02,.04,.05,.09,.1,.15s.13,.13,.23,.21l1.34,1.12,1.84-1.89c.16-.16,.25-.28,.27-.35,.03-.09,.04-.21,.01-.37l-.02-.1,.74-.12,.44,2.71-.74,.12-.02-.11c-.03-.2-.06-.32-.08-.36-.03-.04-.05-.06-.08-.05-.03,0-.1,.06-.2,.15l-1.2,1.17,.84,.7,.54-.09c.13-.02,.22-.05,.27-.08,.05-.04,.08-.08,.09-.13,.01-.05,0-.15-.01-.29l-.04-.22,.74-.12,.42,2.63-.74,.12-.03-.2c-.02-.15-.05-.25-.09-.3-.03-.05-.08-.08-.14-.09-.05-.01-.15,0-.32,.02l-2.94,.47c-.16,.03-.26,.05-.31,.09s-.08,.08-.1,.13c-.02,.05-.02,.15,0,.29l.04,.22-.74,.12Z"/><path class="c" d="M6.88,34.32l.54-4.52,1.78-.41,.17,.73c-.29,.08-.54,.2-.72,.34-.19,.14-.32,.3-.4,.49-.08,.19-.13,.41-.16,.66l-.1,.83,1.35,.16,.03-.27c.02-.2,.03-.34,0-.42-.02-.07-.06-.13-.12-.17-.06-.04-.18-.07-.37-.09l-.21-.02,.08-.69,2.29,.27-.08,.69-.23-.03c-.16-.02-.28-.01-.35,.01-.08,.03-.13,.07-.17,.13-.03,.06-.06,.2-.09,.43l-.03,.25,1.24,.15c.13,.01,.21,.02,.24,0,.03,0,.06-.03,.08-.07,.02-.04,.04-.12,.05-.24l.05-.46c.04-.34,.03-.63-.04-.87-.07-.25-.2-.47-.4-.68-.2-.21-.44-.38-.72-.51l.33-.68,1.93,.95-.56,4.68-.75-.09,.02-.14c.02-.18,.02-.3,0-.37s-.06-.12-.12-.15c-.04-.02-.15-.04-.33-.06l-2.95-.35c-.16-.02-.27-.02-.32,0-.05,.02-.09,.05-.12,.09-.03,.04-.05,.13-.07,.27l-.03,.24-.75-.09Z"/><path class="c" d="M8.02,27.03l1.27-3.11c.08-.2,.19-.41,.32-.63,.13-.22,.3-.41,.5-.55,.2-.14,.42-.23,.65-.26,.23-.03,.47,0,.7,.1,.38,.16,.64,.42,.76,.79,.13,.37,.15,.76,.07,1.16l1.63-.54,.07-.02c.11-.03,.2-.07,.26-.11s.11-.08,.15-.13c.04-.05,.08-.12,.12-.22l.09-.22,.7,.29-.66,1.62-2.84,.73-.17,.42,1,.41c.17,.07,.29,.11,.34,.11,.06,0,.1-.02,.14-.05s.09-.11,.14-.24l.09-.23,.7,.29-1.01,2.47-.7-.29,.09-.23c.05-.12,.07-.21,.07-.27,0-.06-.03-.11-.07-.16-.02-.02-.11-.07-.26-.13l-2.84-1.16c-.11-.05-.19-.07-.25-.07-.05,0-.1,.02-.13,.05-.05,.05-.09,.11-.12,.18l-.04,.1-.08,.19-.72-.29Zm1.59-1.52l1.31,.53,.31-.75c.12-.29,.18-.53,.19-.69,0-.17-.03-.31-.1-.42-.07-.12-.18-.2-.32-.26-.13-.05-.26-.07-.38-.04-.12,.03-.23,.1-.33,.21-.1,.11-.21,.3-.32,.59l-.34,.83Z"/><path class="c" d="M11.36,19.79l1.37-1.74,3.49,.71-1.53-1.2c-.13-.1-.22-.16-.26-.17-.07-.02-.12-.02-.17,0-.05,.02-.11,.08-.19,.18l-.16,.21-.59-.47,1.39-1.77,.59,.47-.15,.2c-.08,.1-.12,.18-.13,.24,0,.06,0,.11,.02,.16,.03,.05,.1,.12,.23,.22l3.31,2.61-.69,.88-4.41-.89,2.21,1.74c.13,.1,.21,.16,.26,.17,.05,.01,.1,0,.15-.02,.05-.02,.12-.08,.19-.18l.16-.2,.59,.47-1.39,1.77-.59-.47,.14-.18c.08-.1,.13-.18,.14-.23,.01-.05,0-.11-.02-.16-.03-.06-.08-.12-.17-.19l-2.46-1.93c-.09-.07-.17-.12-.23-.13-.06-.01-.11-.01-.16,0-.05,.02-.1,.07-.17,.15l-.18,.23-.59-.47Z"/><path class="c" d="M18.69,12.08l2.25-1.28,.37,.66-.07,.04c-.14,.08-.23,.14-.26,.17s-.05,.08-.06,.13c0,.05,0,.1,.02,.13,.03,.05,.11,.13,.24,.25l2.18,1.88-.48-2.93c-.02-.14-.05-.24-.08-.29-.04-.06-.08-.1-.14-.1-.06,0-.16,.03-.3,.11l-.15,.08-.37-.65,1.83-1.04,.37,.66c-.15,.09-.24,.16-.28,.22-.05,.1-.06,.27-.02,.52l.65,4.46-1.07,.61-3.53-2.86c-.14-.11-.24-.18-.3-.21-.06-.02-.12-.03-.19-.02-.07,0-.16,.05-.27,.11l-.37-.66Z"/><path class="c" d="M27.83,7.84c.83-.22,1.58-.15,2.23,.22,.65,.37,1.09,.95,1.3,1.75,.14,.54,.15,1.04,.03,1.52-.13,.48-.37,.88-.72,1.22-.36,.34-.83,.58-1.42,.74-.78,.21-1.47,.16-2.08-.13-.74-.36-1.22-.96-1.45-1.83-.21-.8-.13-1.53,.26-2.18,.39-.65,1.01-1.09,1.85-1.32Zm.24,.83c-.4,.11-.68,.34-.83,.71-.2,.46-.21,.98-.05,1.58,.16,.6,.42,1.03,.79,1.3,.32,.23,.67,.3,1.07,.19,.4-.11,.67-.34,.83-.7,.18-.43,.2-.94,.04-1.54-.11-.42-.26-.75-.46-1-.2-.25-.41-.42-.66-.51-.24-.09-.48-.1-.72-.03Z"/><path class="c" d="M32.4,7.03l2.66-.04v.75h-.22c-.13,0-.21,.01-.24,.03-.06,.03-.11,.07-.13,.12-.03,.05-.04,.14-.04,.26l.05,3.11c0,.12,0,.2,.02,.23,.01,.03,.04,.05,.07,.07,.04,.02,.11,.03,.21,.02,.35,0,.63-.06,.84-.15,.21-.09,.4-.24,.57-.45,.17-.21,.31-.48,.43-.83l.72,.24-.69,2.03-4.16,.06v-.75h.25c.11,0,.19-.02,.24-.05s.09-.07,.12-.12c.02-.05,.04-.13,.03-.25l-.05-3.09c0-.13-.02-.22-.04-.28-.02-.06-.06-.1-.11-.12-.05-.03-.12-.04-.23-.04h-.29v-.75Z"/><path class="c" d="M38.39,7.05l2.6,.58-.17,.74-.25-.06c-.12-.03-.2-.03-.26-.01-.06,.02-.1,.05-.13,.09-.04,.05-.07,.15-.11,.31l-.43,1.94c-.08,.36-.1,.64-.07,.83s.11,.35,.24,.48c.12,.13,.29,.21,.5,.26,.21,.05,.41,.04,.59-.03,.19-.07,.33-.17,.44-.31,.11-.14,.2-.39,.28-.75l.48-2.13c.02-.09,.02-.16,0-.2-.02-.06-.05-.1-.1-.13-.03-.02-.12-.05-.27-.08l-.21-.05,.17-.74,2.2,.49-.16,.74-.17-.04c-.17-.04-.28-.05-.32-.04-.07,.02-.12,.05-.16,.1-.03,.03-.06,.14-.1,.31l-.47,2.1c-.09,.39-.21,.7-.39,.94-.23,.32-.54,.54-.93,.66-.38,.12-.81,.13-1.27,.03-.33-.07-.61-.19-.85-.35-.24-.16-.43-.35-.58-.58-.15-.23-.24-.46-.28-.68-.03-.22,0-.54,.09-.95l.46-2.06c.04-.19,.06-.31,.05-.37,0-.06-.03-.11-.07-.14-.04-.04-.13-.07-.26-.1l-.24-.05,.16-.74Z"/><path class="c" d="M45.38,8.83l1.97,1v3.56l.87-1.74c.08-.15,.11-.25,.12-.29,0-.07,0-.12-.04-.16-.03-.04-.1-.09-.21-.15l-.24-.12,.34-.67,2,1.01-.34,.67-.22-.11c-.11-.06-.2-.08-.26-.08-.06,0-.11,.02-.15,.05s-.1,.13-.17,.27l-1.9,3.76-1-.5v-4.5l-1.26,2.51c-.07,.14-.11,.24-.11,.29,0,.05,.01,.09,.05,.14,.03,.05,.11,.1,.22,.15l.23,.12-.34,.67-2.01-1.02,.34-.67,.21,.11c.12,.06,.2,.09,.25,.09,.05,0,.1-.02,.15-.05,.05-.04,.1-.1,.15-.2l1.41-2.79c.05-.11,.08-.19,.08-.25,0-.06-.01-.11-.04-.16s-.09-.09-.18-.13l-.26-.13,.34-.67Z"/><path class="c" d="M51.93,12.3l.39,.34-.08,.18,2.32,2.01,.17-.1,.39,.34-.74,1.89-.71-.28c.08-.35,.13-.58,.14-.7,.02-.23,0-.45-.07-.65-.05-.15-.12-.27-.22-.36-.05-.04-.09-.06-.13-.05-.04,0-.09,.05-.16,.13l-2.05,2.37c-.12,.14-.19,.23-.21,.28-.02,.04-.03,.09-.02,.13,0,.04,.03,.08,.06,.13,.04,.04,.14,.14,.32,.3l-.49,.57-2.01-1.74,.49-.57,.12,.11c.13,.12,.23,.18,.28,.2,.05,.02,.11,.01,.16-.01,.06-.03,.14-.11,.26-.24l2.09-2.42c.06-.07,.09-.12,.09-.15,0-.03-.03-.07-.08-.11-.1-.09-.25-.15-.44-.18-.19-.03-.4-.02-.62,.03-.09,.02-.3,.1-.65,.25l-.38-.66,1.76-1.01Z"/><path class="c" d="M56.93,17.28l2.53,3.78-1.08,1.48-.6-.45c.17-.26,.28-.5,.33-.73s.05-.44-.01-.63c-.06-.19-.16-.4-.31-.61l-.46-.69-1.13,.76,.15,.23c.12,.17,.21,.28,.27,.32,.06,.04,.13,.06,.2,.05s.19-.07,.34-.17l.17-.11,.39,.58-1.92,1.28-.39-.58,.2-.13c.13-.09,.22-.17,.26-.24,.04-.07,.05-.14,.04-.21-.01-.07-.08-.2-.21-.38l-.14-.21-1.04,.7c-.11,.07-.17,.12-.19,.15-.02,.03-.02,.06-.01,.1,0,.04,.05,.11,.12,.22l.25,.38c.19,.28,.39,.5,.6,.64,.21,.14,.46,.22,.74,.26,.28,.03,.58,0,.88-.08l.19,.73-2.08,.53-2.62-3.92,.63-.42,.08,.11c.1,.15,.18,.25,.24,.28,.06,.04,.12,.05,.19,.03,.04-.01,.13-.07,.29-.17l2.47-1.65c.13-.09,.22-.16,.25-.2,.03-.05,.04-.1,.03-.15,0-.05-.05-.14-.12-.25l-.13-.2,.63-.42Z"/><path class="c" d="M60.88,23.76l1.44,4.32-1.44,1.13-.46-.59c.23-.2,.4-.41,.51-.61,.11-.21,.17-.41,.16-.61,0-.2-.05-.42-.13-.67l-.26-.79-1.29,.43,.09,.26c.06,.2,.12,.32,.17,.38,.05,.06,.11,.09,.18,.1s.2-.02,.38-.08l.2-.07,.22,.66-2.19,.73-.22-.66,.22-.07c.15-.05,.26-.11,.31-.17,.06-.06,.09-.12,.09-.19,0-.07-.03-.21-.1-.42l-.08-.23-1.19,.4c-.13,.04-.2,.07-.22,.09-.02,.02-.04,.05-.04,.09,0,.04,.02,.12,.06,.24l.14,.43c.11,.32,.25,.58,.41,.77,.17,.19,.38,.34,.65,.45,.26,.1,.56,.16,.87,.16v.76l-2.16-.04-1.49-4.47,.71-.24,.04,.13c.06,.17,.11,.28,.15,.33s.1,.08,.17,.08c.04,0,.15-.03,.32-.09l2.82-.94c.15-.05,.25-.09,.29-.13,.04-.04,.06-.08,.07-.13,0-.05,0-.14-.05-.28l-.08-.23,.72-.24Z"/><path class="c" d="M62.99,31.08l.14,3.36c0,.22,0,.45-.03,.71s-.1,.49-.23,.71c-.12,.21-.29,.38-.48,.5s-.42,.19-.68,.2c-.41,.02-.75-.12-1.02-.4-.27-.28-.45-.63-.54-1.03l-1.26,1.17-.06,.05c-.09,.08-.15,.14-.19,.21-.04,.06-.07,.12-.08,.18-.02,.06-.02,.14-.02,.25v.23l-.74,.03-.07-1.75,2.27-1.85-.02-.45-1.08,.04c-.19,0-.31,.02-.36,.05-.05,.02-.09,.06-.11,.1-.02,.05-.03,.14-.03,.28v.25l-.74,.03-.11-2.67,.75-.03v.24c.01,.13,.03,.22,.06,.27,.03,.05,.07,.09,.13,.12,.03,.01,.13,.01,.29,0l3.06-.13c.12,0,.21-.02,.25-.04,.05-.02,.08-.05,.1-.1,.03-.06,.04-.14,.04-.22v-.11l-.02-.2,.78-.03Zm-.81,2.05l-1.41,.06,.03,.81c.01,.32,.05,.55,.12,.71,.06,.15,.15,.27,.27,.34,.11,.08,.25,.11,.4,.1,.14,0,.26-.05,.36-.13,.1-.08,.17-.19,.21-.33,.04-.14,.06-.36,.05-.67l-.04-.9Z"/><path class="c" d="M62.06,42.92l-1.89,.06-.04-.76c.48-.14,.85-.34,1.12-.59s.43-.55,.51-.89c.05-.22,.04-.4-.02-.54-.06-.15-.15-.23-.26-.26-.12-.03-.25,0-.39,.09-.13,.09-.27,.27-.42,.55l-.53,.96c-.29,.53-.6,.88-.92,1.07-.33,.18-.67,.23-1.03,.14-.46-.1-.81-.37-1.04-.81-.26-.49-.32-1.04-.18-1.64,.06-.28,.16-.53,.28-.75,.13-.22,.3-.44,.53-.66l-.34-.25,.13-.57,2.15,.09v.75c-.45,.07-.85,.26-1.21,.55-.36,.29-.59,.65-.68,1.07-.04,.19-.05,.35-.03,.49,.02,.14,.07,.25,.14,.33,.07,.08,.15,.13,.25,.16,.15,.03,.3,0,.44-.13,.14-.13,.31-.36,.5-.71l.46-.83c.07-.13,.18-.29,.34-.5,.16-.21,.31-.36,.45-.46,.14-.1,.31-.17,.51-.21,.2-.04,.4-.04,.59,0,.28,.06,.52,.2,.73,.41,.2,.21,.34,.49,.42,.83,.08,.35,.07,.71-.01,1.09-.1,.46-.32,.85-.64,1.17l.23,.21-.12,.54Z"/></g><polygon class="c" points="36.02 26.66 50.98 39.97 48.93 41.93 37.8 48.01 34.85 50.37 20.18 38.28 36.02 26.66"/><circle class="f" cx="35.1" cy="35.1" r="33.6"/><g><path class="d" d="M31.63,46.57c.18-.25,.59-.56,1.14-.69,.66-.16,1.2,.09,1.38,.16,.19,.07,.96,.42,1.3,1.26,.22,.53,.23,1.02,.13,1.22-.54,1.13-1.09,1.93-1.22,2.03-.18,.13-.43,.33-.79,.39-.9,.15-1.78-.25-2.33-.8-.17-.17-.56-.62-.61-1.28-.02-.26,.03-.54,.07-.68"/><path class="d" d="M28.16,43.68c.13-.16,.48-.53,1.02-.67,.86-.22,1.57,.15,1.74,.25,.64,.36,.94,.76,1.19,1.46,.03,.08,.18,.76-.13,1.27-.46,.75-.96,1.64-1.59,2.75-.2,.35-.91,.62-1.11,.66-.54,.12-.99-.02-1.21-.09-.23-.08-.78-.26-1.18-.79-.59-.78-.41-1.78-.38-1.94"/><path class="d" d="M19.77,40.53s-1.98-.25-2.38-1.01c-1.73-3.26,2.28-12.5,5.61-14.08,.88-.42,2.9,1.16,2.9,1.16,1.19-.59,1.7-.76,2.66-1.18,0,0,2.13-1.01,6.09,.94"/><path class="d" d="M22.6,44.46c-.09,.16-.39,.76-.39,1.19,0,.55,.23,.94,.36,1.14,.44,.7,1.11,.95,1.29,1,.19,.06,.87,.27,1.58-.04,.11-.05,.5-.21,.75-.6l1.94-3.42c.19-.34,.34-.66,.4-1.25s-.19-.95-.3-1.14c-.09-.14-.35-.54-.87-.83-.49-.28-.95-.3-1.08-.3-.52-.01-.9,.16-1,.2-.38,.18-.61,.43-.65,.48-.19,.22-.29,.44-.35,.58"/><path class="d" d="M20.32,39.56c-.6,1.01-1.03,1.78-1.61,2.82-.07,.13-.12,.32-.13,.57-.03,.66,.33,1.16,.44,1.31,.08,.11,.63,.83,1.61,.97,.66,.09,1.19-.02,1.65-.4,.43-.36,1.37-2.2,1.98-3.36,.14-.26-.03-.87-.37-1.41-.26-.43-.6-.67-.76-.77-.08-.05-.39-.24-.85-.34-.2-.04-.57-.12-1,0-.16,.04-.62,.03-.96,.6Z"/><path class="d" d="M50.57,39.83c.89-.15,2.13-.58,2.38-1.2,1.38-3.54-2.75-12.86-6.44-13.77-1.37-.34-3,2.21-4.08,1.51,0,0-1.15-.99-1.79-1.14-2.49-.56-11.08,2.99-11.08,2.99-.69,.29-1.35,.55-1.74,1.18-.44,.7-.39,1.72-.28,2.57,.1,.82,.62,4.87,1.28,6.11,.32,.6,.8,.84,.8,.84,.07,.03,.12,.05,.15,.06,.62,.24,1.28,.08,1.43,.04,.23-.06,1.34-.38,1.88-1.24,.78-1.26-.68-5.23-.18-5.62,0,0,3.24-1.68,4.43-1.65,.83,.03,1.88,.72,2.88,1.36,0,0,3.71,2.31,5.53,3.65,1.29,.95,4.45,3.06,4.84,4.28,.04,.14,.07,.28,.07,.28,.03,.15,.14,.72-.04,1.31-.18,.59-.65,1.21-1.38,1.49-.28,.11-.89,.27-1.56,.02-.43-.17-.88-.55-1.01-.71"/><path class="e" d="M42.81,44.84c.5,.58,1.09,1.22,2.11,1.16,1.15-.07,1.8-1.04,1.84-1.11,.5-.79,.35-1.6,.31-1.77-.09-.43-.27-.72-.4-.9l-3.13-2.6"/><path class="e" d="M37.25,46.05c1.31,1.35,2.62,2.41,3.22,2.59,.12,.04,.26,.07,.43,.09,.61,.05,1.09-.17,1.27-.28,.7-.39,.97-1.03,1.05-1.24,.05-.12,.25-.71,.07-1.43-.08-.31-.38-.81-.49-.95-.47-.57-2.19-2-2.19-2"/><path class="d" d="M34.9,50.19c.09,.07,.22,.17,.38,.27,.13,.08,.4,.24,.75,.31,.58,.12,1.06-.06,1.18-.11,.58-.24,.88-.67,1.07-.97,.14-.21,.33-.51,.41-.95,.03-.18,0-1.06-.3-1.58"/></g></svg>