<?xml version="1.0" encoding="UTF-8"?>
<svg id="Layer_2" data-name="Layer 2" xmlns="http://www.w3.org/2000/svg" viewBox="0 0 319.8 80.87">
  <defs>
    <style>
      .cls-1 {
        fill: #44afa9;
      }

      .cls-2 {
        fill: #f8724f;
      }

      .cls-3 {
        fill: #fcd252;
      }
    </style>
  </defs>
  <g id="Draft_2" data-name="Draft 2">
    <g>
      <path class="cls-3" d="m159.8,4.49l2.18,4.42c1.26,2.54,2.36,4.7,3.3,6.47.94,1.78,1.64,3.02,2.1,3.72.28.45.43.75.44.89,0,.37-.25.55-.76.55-.22,0-.39-.07-.49-.21-.1-.14-.36-.64-.77-1.49l-.91-1.89-1.44-2.97-1.33-2.75-.98-2.01-2.12-4.32-2.68,1.61v2.17s-.01,1.45-.01,1.45l.08,9.4.02.73h-8.98l.09-12.51-.03-3.56-.06-3.12V.28h8.98l-.07,2.34-.02,2.84,2.5-1.49c1.42-.84,2.68-1.63,3.78-2.37,1.11-.73,1.83-1.18,2.14-1.34s.61-.25.88-.25c.52,0,.78.16.78.48,0,.17-.07.31-.21.42-.14.11-.47.29-.99.54-.62.29-1.98,1.05-4.08,2.29l-1.32.76Z"/>
      <path class="cls-3" d="m174.21,12.74v4.54c0,.88.05,1.44.16,1.67.21.45.69.67,1.45.67,1.13,0,2.25-.31,3.36-.93s2.07-1.48,2.88-2.57c.26-.36.45-.59.57-.69s.24-.15.38-.15c.17,0,.3.06.41.18s.16.28.16.46c0,.41-.33.96-.98,1.66-.86.89-1.93,1.61-3.2,2.17s-2.52.83-3.73.83c-2.08,0-3.92-.7-5.51-2.09-.93-.82-1.64-1.83-2.14-3.03-.44-1.05-.66-2.11-.66-3.16s.2-2.03.59-3.05c.39-1.02.93-1.9,1.61-2.64.79-.87,1.73-1.54,2.81-2.02,1.06-.47,2.18-.7,3.34-.7,1.81,0,3.44.53,4.91,1.6,2.29,1.66,3.42,4.07,3.4,7.22h-7.81s-2.01.04-2.01.04Zm3.75-.97v-4.27c-.02-.92-.04-1.46-.06-1.64-.02-.18-.09-.35-.21-.5-.27-.38-.83-.57-1.67-.57s-1.4.22-1.61.66c-.14.26-.21.95-.21,2.06v4.27l1.79.06,1.96-.06Z"/>
      <path class="cls-3" d="m193.83,8.82l-.03,5.62.06,5.83h-7.53l.02-.81.02-2.99.05-5.38-.07-5.98-.02-.85h7.51v3.02c1.12-1.19,1.9-1.94,2.34-2.26,1.01-.71,1.97-1.07,2.87-1.07.55,0,1,.12,1.35.35.36.23.53.53.53.89,0,.28-.11.52-.32.7s-.48.28-.8.28c-.2,0-.43-.06-.69-.18-.43-.21-.78-.31-1.07-.31-.7,0-1.38.24-2.03.72-.65.48-1.38,1.27-2.19,2.39Z"/>
      <path class="cls-3" d="m209.71,4.28v2.04c1.14-.81,2.26-1.42,3.35-1.82s2.16-.61,3.19-.61c1.39,0,2.56.32,3.52.95.72.48,1.21,1.07,1.46,1.78.25.71.37,1.86.37,3.46l-.03,6.78.04,3.41h-7.44l.05-4.07.04-2.99v-4.51c-.02-1.04-.04-1.67-.05-1.87s-.06-.38-.14-.54c-.16-.31-.49-.47-1.01-.47-.48,0-1,.14-1.55.41s-1.16.68-1.8,1.23v.6s-.04,4.12-.04,4.12l-.03,3.15.04,4.31v.63s-7.47,0-7.47,0l.04-5.74.04-3.79-.04-3.28-.04-3.18h7.5Z"/>
      <path class="cls-2" d="m162.36,41.96l2.62-4.9c1.3-2.4,2.33-4.4,3.1-6,.21-.43.37-.71.49-.85.12-.14.27-.21.45-.21.17,0,.31.06.44.17.13.11.19.25.19.4,0,.17-.1.43-.31.79-.05.09-.1.17-.15.25-.1.16-.22.38-.38.66l-10.83,19.54-12.52-21.53h10.27l6.62,11.68Z"/>
      <path class="cls-2" d="m176.23,33.88c1.57,0,3.06.43,4.47,1.3,1.3.8,2.29,1.89,2.97,3.28.61,1.22.91,2.51.91,3.88,0,.94-.18,1.88-.53,2.83s-.84,1.79-1.46,2.52c-.86,1.01-1.91,1.76-3.15,2.27-1.02.42-2.08.63-3.18.63-1.85,0-3.51-.55-4.98-1.64-1.15-.84-2.03-1.92-2.62-3.24-.5-1.11-.75-2.29-.75-3.53,0-2.42.88-4.43,2.64-6.04,1.65-1.48,3.54-2.24,5.68-2.27Zm-.42.94l-.04,14.78c.3.02.51.03.63.03,1.36,0,2.66-.38,3.9-1.14,1.19-.74,2.08-1.73,2.68-2.96.47-.98.7-2.05.7-3.23,0-2.36-.87-4.27-2.61-5.73-1.41-1.18-2.93-1.77-4.58-1.77-.14,0-.36,0-.67.03Z"/>
      <path class="cls-2" d="m194.37,30.28v.75s-.01,5.16-.01,5.16v2.23s-.04,4.06-.04,4.06l.06,7.24v.57h-7.49v-.69l.04-2.33.02-4.22.04-5.52v-2.97s-.06-3.27-.06-3.27v-1h7.46Z"/>
      <path class="cls-2" d="m217.01,34.28l-.04,11.51.04,4.48h-7.5v-2.07c-1.24.85-2.37,1.46-3.39,1.83-1.02.37-2.08.56-3.2.56-2.04,0-3.52-.61-4.43-1.82-.34-.45-.58-.96-.71-1.53-.13-.57-.2-1.38-.2-2.44l.03-3.43v-2.29s-.06-4.82-.06-4.82h7.5l-.09,7.35v2.78s.03,1.88.03,1.88c0,1.12.07,1.8.21,2.02.17.25.48.38.94.38s.95-.12,1.46-.37,1.15-.68,1.96-1.3v-1.92s.04-5.23.04-5.23l-.09-5.14v-.45h7.5Z"/>
      <path class="cls-2" d="m227.91,34.28v2.04c1.14-.81,2.26-1.42,3.35-1.82s2.16-.61,3.19-.61c1.39,0,2.56.32,3.52.95.72.48,1.21,1.07,1.46,1.78.25.71.37,1.86.37,3.46l-.03,6.78.04,3.41h-7.44l.05-4.07.04-2.99v-4.51c-.02-1.04-.04-1.67-.05-1.87s-.06-.38-.14-.54c-.16-.31-.49-.47-1.01-.47-.48,0-1,.14-1.55.41s-1.16.68-1.8,1.23v.6s-.04,4.12-.04,4.12l-.03,3.15.04,4.31v.63s-7.47,0-7.47,0l.04-5.74.04-3.79-.04-3.28-.04-3.18h7.5Z"/>
      <path class="cls-2" d="m251.1,29.12l-.16,4.73v.45c.83,0,1.61-.03,2.3-.1.12,0,.22-.01.31-.01.43,0,.64.2.64.59,0,.37-.22.55-.67.55-.14,0-.31,0-.51-.03-.77-.06-1.32-.09-1.66-.09h-.42v2.84s.04,5.69.04,5.69l.04,3.04c0,.71.05,1.21.16,1.49s.29.42.56.42c.35,0,.73-.21,1.13-.62.39-.41.7-.91.93-1.51.21-.57.45-.85.73-.85.33,0,.5.19.5.56s-.17.83-.5,1.38-.73,1.03-1.2,1.44c-1.15,1.01-2.65,1.51-4.48,1.51-1.73,0-3.07-.52-4.01-1.57-.49-.53-.83-1.11-1.01-1.76s-.28-1.55-.28-2.7v-4.19s.01-5.24.01-5.24c-.14,0-.23-.01-.29-.01-.1,0-.29,0-.59.03-.24.02-.45.03-.62.03-.48,0-.72-.18-.72-.55s.23-.53.69-.53c.21,0,.37,0,.45.01l1.07.07v-1.66c2.89-1.04,5.41-2.19,7.56-3.44Z"/>
      <path class="cls-2" d="m262.06,42.74v4.54c0,.88.05,1.44.16,1.67.21.45.69.67,1.45.67,1.13,0,2.25-.31,3.36-.93s2.07-1.48,2.88-2.57c.26-.36.45-.59.57-.69s.24-.15.38-.15c.17,0,.3.06.41.18s.16.28.16.46c0,.41-.33.96-.98,1.66-.86.89-1.93,1.61-3.2,2.17s-2.52.83-3.73.83c-2.08,0-3.92-.7-5.51-2.09-.93-.82-1.64-1.83-2.14-3.03-.44-1.05-.66-2.11-.66-3.16s.2-2.03.59-3.05c.39-1.02.93-1.9,1.61-2.64.79-.87,1.73-1.54,2.81-2.02,1.06-.47,2.18-.7,3.34-.7,1.81,0,3.44.53,4.91,1.6,2.29,1.66,3.42,4.07,3.4,7.22h-7.81s-2.01.04-2.01.04Zm3.75-.97v-4.27c-.02-.92-.04-1.46-.06-1.64-.02-.18-.09-.35-.21-.5-.27-.38-.83-.57-1.67-.57s-1.4.22-1.61.66c-.14.26-.21.95-.21,2.06v4.27l1.79.06,1.96-.06Z"/>
      <path class="cls-2" d="m280.02,42.74v4.54c0,.88.05,1.44.16,1.67.21.45.69.67,1.45.67,1.13,0,2.25-.31,3.36-.93s2.07-1.48,2.88-2.57c.26-.36.45-.59.57-.69s.24-.15.38-.15c.17,0,.3.06.41.18s.16.28.16.46c0,.41-.33.96-.98,1.66-.86.89-1.93,1.61-3.2,2.17s-2.52.83-3.73.83c-2.08,0-3.92-.7-5.51-2.09-.93-.82-1.64-1.83-2.14-3.03-.44-1.05-.66-2.11-.66-3.16s.2-2.03.59-3.05c.39-1.02.93-1.9,1.61-2.64.79-.87,1.73-1.54,2.81-2.02,1.06-.47,2.18-.7,3.34-.7,1.81,0,3.44.53,4.91,1.6,2.29,1.66,3.42,4.07,3.4,7.22h-7.81s-2.01.04-2.01.04Zm3.75-.97v-4.27c-.02-.92-.04-1.46-.06-1.64-.02-.18-.09-.35-.21-.5-.27-.38-.83-.57-1.67-.57s-1.4.22-1.61.66c-.14.26-.21.95-.21,2.06v4.27l1.79.06,1.96-.06Z"/>
      <path class="cls-2" d="m299.63,38.82l-.03,5.62.06,5.83h-7.53l.02-.81.02-2.99.05-5.38-.07-5.98-.02-.85h7.51v3.02c1.12-1.19,1.9-1.94,2.34-2.26,1.01-.71,1.97-1.07,2.87-1.07.54,0,1,.12,1.35.35.36.23.53.53.53.89,0,.28-.11.52-.32.7-.21.19-.48.28-.8.28-.2,0-.43-.06-.69-.18-.43-.21-.79-.31-1.07-.31-.7,0-1.38.24-2.03.72s-1.38,1.27-2.19,2.39Z"/>
      <path class="cls-2" d="m307.51,47.56c.2,0,.44.15.75.44.49.46,1.18.86,2.08,1.19s1.74.49,2.52.49c.36,0,.63-.06.81-.18s.27-.3.27-.54-.12-.52-.37-.85c-.25-.33-.8-.96-1.66-1.89-2.1-2.25-3.46-3.83-4.08-4.74-.62-.91-.93-1.79-.93-2.63,0-.73.21-1.43.64-2.1s1.02-1.24,1.78-1.71c1.26-.78,2.71-1.17,4.34-1.17,1.2,0,2.47.25,3.81.76,1.04.4,1.57.83,1.57,1.3,0,.15-.06.28-.18.4s-.26.18-.42.18c-.19,0-.53-.18-1.04-.54-1.04-.74-2.16-1.11-3.38-1.11-.43,0-.75.07-.97.21s-.33.35-.33.63c0,.33.2.75.61,1.26s1.23,1.37,2.47,2.58c1.21,1.18,1.98,1.96,2.31,2.32.33.37.64.79.95,1.27.52.82.78,1.71.78,2.67,0,1.5-.73,2.72-2.18,3.65-1.19.77-2.66,1.16-4.39,1.16-1.93,0-3.65-.43-5.14-1.29-.44-.26-.74-.48-.9-.64s-.24-.35-.24-.54c0-.36.19-.55.57-.56Z"/>
      <path class="cls-1" d="m156.38,60.28l-.06,7.59-.03,7.97.04,4.06c.5.04.93.06,1.3.06,3.43,0,5.72-.8,6.88-2.39.6-.82.99-1.99,1.18-3.49.19-1.51.29-4.25.29-8.23l-.04-3.88-.05-1.2c0-.51.21-.76.62-.76.37,0,.55.24.55.73,0,.28-.01.67-.04,1.16l-.12,5.84c-.04,2.46-.08,4.13-.13,5.02s-.15,1.71-.29,2.48c-.3,1.59-1,2.86-2.09,3.81-1.4,1.22-3.79,1.83-7.18,1.83-2.97,0-5.21-.4-6.72-1.2-1.19-.62-2.04-1.66-2.53-3.12-.22-.67-.36-1.37-.4-2.08s-.06-2.89-.07-6.52l-.06-7.68h8.95Z"/>
      <path class="cls-1" d="m177.7,64.28v2.04c1.14-.81,2.26-1.42,3.35-1.82s2.16-.61,3.19-.61c1.39,0,2.56.32,3.52.95.72.48,1.21,1.07,1.46,1.78.25.71.37,1.86.37,3.46l-.03,6.78.04,3.41h-7.44l.05-4.07.04-2.99v-4.51c-.02-1.04-.04-1.67-.05-1.87s-.06-.38-.14-.54c-.16-.31-.49-.47-1.01-.47-.48,0-1,.14-1.55.41s-1.16.68-1.8,1.23v.6s-.04,4.12-.04,4.12l-.03,3.15.04,4.31v.63s-7.47,0-7.47,0l.04-5.74.04-3.79-.04-3.28-.04-3.18h7.5Z"/>
      <path class="cls-1" d="m200.36,64.28v.42l-.03,2.29-.03,3.54-.04,5.39.06,3.03.03,1.32h-7.53l.07-5.39.04-4.76-.03-2.5-.04-2.78v-.56h7.5Zm-3.79-5.13c2.58,0,3.87.67,3.87,2.02,0,.65-.34,1.16-1.02,1.53-.68.37-1.63.55-2.86.55-2.45,0-3.68-.69-3.68-2.08s1.23-2,3.69-2.02Z"/>
      <path class="cls-1" d="m211.9,59.12l-.16,4.73v.45c.83,0,1.61-.03,2.3-.1.12,0,.22-.01.31-.01.43,0,.64.2.64.59,0,.37-.22.55-.67.55-.14,0-.31,0-.51-.03-.77-.06-1.32-.09-1.66-.09h-.42v2.84s.04,5.69.04,5.69l.04,3.04c0,.71.05,1.21.16,1.49s.29.42.56.42c.35,0,.73-.21,1.13-.62.39-.41.7-.91.93-1.51.21-.57.45-.85.73-.85.33,0,.5.19.5.56s-.17.83-.5,1.38-.73,1.03-1.2,1.44c-1.15,1.01-2.65,1.51-4.48,1.51-1.73,0-3.07-.52-4.01-1.57-.49-.53-.83-1.11-1.01-1.76s-.28-1.55-.28-2.7v-4.19s.01-5.24.01-5.24c-.14,0-.23-.01-.29-.01-.1,0-.29,0-.59.03-.24.02-.45.03-.62.03-.48,0-.72-.18-.72-.55s.23-.53.69-.53c.21,0,.37,0,.45.01l1.07.07v-1.66c2.89-1.04,5.41-2.19,7.56-3.44Z"/>
      <path class="cls-1" d="m222.86,72.74v4.54c0,.88.05,1.44.16,1.67.21.45.69.67,1.45.67,1.13,0,2.25-.31,3.36-.93s2.07-1.48,2.88-2.57c.26-.36.45-.59.57-.69s.24-.15.38-.15c.17,0,.3.06.41.18s.16.28.16.46c0,.41-.33.96-.98,1.66-.86.89-1.93,1.61-3.2,2.17s-2.52.83-3.73.83c-2.08,0-3.92-.7-5.51-2.09-.93-.82-1.64-1.83-2.14-3.03-.44-1.05-.66-2.11-.66-3.16s.2-2.03.59-3.05c.39-1.02.93-1.9,1.61-2.64.79-.87,1.73-1.54,2.81-2.02,1.06-.47,2.18-.7,3.34-.7,1.81,0,3.44.53,4.91,1.6,2.29,1.66,3.42,4.07,3.4,7.22h-7.81s-2.01.04-2.01.04Zm3.75-.97v-4.27c-.02-.92-.04-1.46-.06-1.64-.02-.18-.09-.35-.21-.5-.27-.38-.83-.57-1.67-.57s-1.4.22-1.61.66c-.14.26-.21.95-.21,2.06v4.27l1.79.06,1.96-.06Z"/>
      <path class="cls-1" d="m253.96,60.28l-.03,7.16v5.07s.03,7.1.03,7.1v.66h-7.49v-1.9c-.8.8-1.57,1.37-2.32,1.71s-1.59.51-2.54.51c-1.86,0-3.51-.68-4.95-2.05-1.79-1.69-2.68-3.83-2.68-6.43s.86-4.57,2.59-6.14c1.53-1.4,3.26-2.09,5.17-2.09.85,0,1.67.16,2.47.48s1.56.81,2.31,1.45l-.06-5.54h7.5Zm-7.44,6.74c-.76-.69-1.45-1.21-2.06-1.55s-1.15-.51-1.62-.51c-.37,0-.62.13-.75.4-.13.27-.2.77-.2,1.52v.64s.01,9.84.01,9.84c0,.79.04,1.28.1,1.48.12.42.4.63.85.63.49,0,1.01-.18,1.55-.55.55-.37,1.25-1,2.11-1.91v-9.99Z"/>
    </g>
    <g>
      <polygon class="cls-3" points="0 79.52 47.66 79.52 0 32.12 0 79.52"/>
      <polygon class="cls-3" points="0 1.04 0 32.06 31.03 1.04 0 1.04"/>
      <polygon class="cls-2" points="54.12 55.74 47.29 62.3 53.4 68.41 60.23 61.85 54.12 55.74"/>
      <polygon class="cls-2" points="61.45 63.08 54.62 69.63 60.95 75.96 67.64 69.27 61.45 63.08"/>
      <polygon class="cls-2" points="46.06 61.07 52.89 54.52 46.78 48.41 39.95 54.96 46.06 61.07"/>
      <polygon class="cls-2" points="38.73 53.74 45.56 47.19 39.02 40.64 32.33 47.34 38.73 53.74"/>
      <polygon class="cls-2" points="58.19 30.33 68.08 20.44 69.15 20.44 92.81 44.1 104.88 32.03 74.26 1.4 51.76 23.9 58.19 30.33"/>
      <polygon class="cls-2" points="68.87 68.04 75.63 61.28 60.03 45.68 60.01 44.51 61.25 44.45 76.85 60.06 83.62 53.29 67.9 37.58 67.92 36.39 69.12 36.35 84.84 52.07 91.59 45.32 68.62 22.35 58.72 32.24 57.65 32.24 49.85 24.44 49.85 23.36 59.74 13.47 47.66 1.39 17.02 32.03 31.1 46.11 38.48 38.73 39.55 38.73 68.87 68.04"/>
      <path class="cls-1" d="m98.82,1.07h-9.98l31.03,31.03-45.61,47.06,24.56.33c21.66,0,39.21-17.56,39.21-39.21S120.47,1.07,98.82,1.07Z"/>
    </g>
  </g>
</svg>